<?xml version="1.0" encoding="UTF-8" standalone="no"?>
<svg
   viewBox="0 0 250 100"
   class="wedding-svg"
   version="1.1"
   id="svg541"
   width="250"
   height="100"
   xmlns="http://www.w3.org/2000/svg"
   xmlns:svg="http://www.w3.org/2000/svg">
  <defs
     id="defs545" />
  <path
     d="m 42,24 c 0,-8 8,-12 8,-12 0,0 8,4 8,12 0,4 -16,4 -16,0 z"
     stroke="currentColor"
     stroke-width="2.5"
     fill="none"
     id="path533"
     style="fill:#ffffff" />
  <path
     d="m 196,15.000003 c 0,-3 1,-4 4,-4 3,0 4,1 4,4 0,2.5 -2,3 -4,3 -2,0 -4,-0.5 -4,-3 z"
     stroke="currentColor"
     stroke-width="2.5"
     fill="none"
     id="path1967"
     style="stroke-linejoin:round;fill:#ffffff" />
  <!-- Vaso/Involucro -->
  <path
     d="M 42,78 C 42,70 38,64 38,64 h 24 c 0,0 -4,6 -4,14 0,4 -4,6 -8,6 -4,0 -8,-2 -8,-6 z"
     stroke="currentColor"
     stroke-width="2.5"
     fill="none"
     stroke-linejoin="round"
     id="path521"
     style="fill:#ffffff" />
  <path
     id="path1952"
     style="fill:#ffffff;stroke:#000000;stroke-width:2.5;stroke-linecap:round;stroke-dasharray:none"
     d="M 62,64 C 68,50 58.006175,44.481486 50,50.775544 41.993825,44.481486 32,50 38,64 Z" />
  <path
     d="m 26,28 c 0,-7 8,-11 8,-11 0,0 5,4 5,11 0,4 -13,4 -13,0 z"
     stroke="currentColor"
     stroke-width="2.5"
     fill="none"
     id="path535"
     style="fill:#ffffff" />
  <!-- Gambi -->
  <path
     d="M 44,64 C 46,50 40,38 34,28"
     stroke="currentColor"
     stroke-width="2.5"
     fill="none"
     id="path523"
     style="stroke-linecap:round;stroke-linejoin:round" />
  <path
     d="m 61,28 c 0,-7 5,-11 5,-11 0,0 8,4 8,11 0,4 -13,4 -13,0 z"
     stroke="currentColor"
     stroke-width="2.5"
     fill="none"
     id="path537"
     style="fill:#ffffff" />
  <path
     d="M 56,64 C 54,50 60,38 66,28"
     stroke="currentColor"
     stroke-width="2.5"
     fill="none"
     id="path525"
     style="stroke-linecap:round;stroke-linejoin:round" />
  <line
     x1="50"
     y1="64"
     x2="50"
     y2="24"
     stroke="currentColor"
     stroke-width="2.5"
     id="line527"
     style="stroke-linecap:round;stroke-linejoin:round" />
  <!-- Foglie avvolgenti dell'involucro -->
  <!-- Tulipano Centro -->
  <!-- Tulipano Sinistra -->
  <!-- Tulipano Destra -->
  <!-- Linea di sbarramento obliqua -->
  <line
     x1="15"
     y1="12"
     x2="85"
     y2="82"
     stroke="currentColor"
     stroke-width="2.5"
     id="line539"
     style="stroke-linecap:round" />
  <path
     d="m 118,50 h 14 m 0,0 -6,-6 m 6,6 -6,6"
     stroke="currentColor"
     stroke-width="2"
     stroke-linecap="round"
     stroke-linejoin="round"
     id="path153"
     style="fill:none;stroke:#808080" />
  <path
     d="m 195,18.000003 v 16 c 0,0 -6.56748,8.161949 -9,14 -2.58008,6.192188 -3,14 -3,18 v 16 c 0,1.5 1.5,3 3,3 h 28 c 1.5,0 3,-1.5 3,-3 v -16 c 0,-4 -0.41993,-11.807812 -3,-18 -2.43252,-5.838051 -9,-14 -9,-14 v -16 z"
     stroke="currentColor"
     stroke-width="2.5"
     fill="none"
     id="path1969"
     style="fill:#ffffff;stroke-linecap:round;stroke-linejoin:round" />
  <line
     x1="195"
     y1="24"
     x2="205"
     y2="24"
     stroke="currentColor"
     stroke-width="2"
     id="line1973"
     style="stroke-linejoin:round" />
  <path
     d="m 194.5,31.000003 c 2.5,1.5 8.5,1.5 11,0"
     stroke="currentColor"
     stroke-width="2"
     id="path1977"
     style="stroke-linejoin:round" />
  <rect
     x="190"
     y="57.000004"
     width="20"
     height="15"
     rx="1"
     stroke="currentColor"
     stroke-width="2.5"
     fill="none"
     id="rect1979"
     style="stroke-linejoin:round" />
  <line
     x1="194"
     y1="64.5"
     x2="206"
     y2="64.5"
     stroke="currentColor"
     stroke-width="2"
     id="line1981"
     style="stroke-linejoin:round" />
</svg>
