<?xml version="1.0" encoding="UTF-8" standalone="no"?>
<svg
   viewBox="0 0 250 100"
   class="wedding-svg"
   version="1.1"
   id="svg24"
   sodipodi:docname="no-regali.svg"
   width="250"
   height="100"
   inkscape:version="1.2.2 (b0a8486541, 2022-12-01)"
   xmlns:inkscape="http://www.inkscape.org/namespaces/inkscape"
   xmlns:sodipodi="http://sodipodi.sourceforge.net/DTD/sodipodi-0.dtd"
   xmlns="http://www.w3.org/2000/svg"
   xmlns:svg="http://www.w3.org/2000/svg">
  <defs
     id="defs28" />
  <sodipodi:namedview
     id="namedview26"
     pagecolor="#ffffff"
     bordercolor="#000000"
     borderopacity="0.25"
     inkscape:showpageshadow="2"
     inkscape:pageopacity="0"
     inkscape:pagecheckerboard="0"
     inkscape:deskcolor="#d1d1d1"
     showgrid="false"
     inkscape:zoom="4.872"
     inkscape:cx="119.86864"
     inkscape:cy="81.999179"
     inkscape:window-width="1920"
     inkscape:window-height="1032"
     inkscape:window-x="0"
     inkscape:window-y="25"
     inkscape:window-maximized="1"
     inkscape:current-layer="svg24" />
  <path
     d="M 32.5,37 C 28,27 18,32 24,37 c 6,5 8.5,0 8.5,0 z"
     stroke="currentColor"
     stroke-width="2.5"
     fill="none"
     id="path8"
     style="fill:none" />
  <!-- Regalo Grande -->
  <rect
     x="15"
     y="45"
     width="35"
     height="30"
     rx="1"
     stroke="currentColor"
     stroke-width="2.5"
     fill="none"
     id="rect2"
     style="fill:#ffffff" />
  <path
     d="M 32.5,37 C 37,27 47,32 41,37 c -6,5 -8.5,0 -8.5,0 z"
     stroke="currentColor"
     stroke-width="2.5"
     fill="none"
     id="path10"
     style="fill:none" />
  <rect
     x="11"
     y="37"
     width="43"
     height="8"
     rx="1"
     stroke="currentColor"
     stroke-width="2.5"
     fill="none"
     id="rect4"
     style="fill:#ffffff" />
  <line
     x1="32.5"
     y1="37"
     x2="32.5"
     y2="75"
     stroke="currentColor"
     stroke-width="2.5"
     id="line6"
     style="fill:#ffffff" />
  <!-- Fiocco Grande -->
  <!-- Regalo Piccolo -->
  <rect
     x="58"
     y="53"
     width="26"
     height="22"
     rx="1"
     stroke="currentColor"
     stroke-width="2.5"
     fill="none"
     id="rect12"
     style="fill:#ffffff" />
  <rect
     x="55"
     y="47"
     width="32"
     height="6"
     rx="1"
     stroke="currentColor"
     stroke-width="2.5"
     fill="none"
     id="rect14"
     style="fill:#ffffff" />
  <line
     x1="71"
     y1="47"
     x2="71"
     y2="75"
     stroke="currentColor"
     stroke-width="2.5"
     id="line16"
     style="fill:#ffffff" />
  <!-- Fiocco Piccolo -->
  <path
     d="M 71,47 C 68,40 60,43 65,47 Z"
     stroke="currentColor"
     stroke-width="2"
     fill="none"
     id="path18"
     style="fill:none" />
  <path
     d="m 71,47 c 3,-7 11,-4 6,0 z"
     stroke="currentColor"
     stroke-width="2"
     fill="none"
     id="path20"
     style="fill:none" />
  <!-- Linea di sbarramento obliqua -->
  <line
     x1="10"
     y1="15"
     x2="85"
     y2="85"
     stroke="currentColor"
     stroke-width="2.5"
     id="line22"
     style="fill:#ffffff" />
  <rect
     style="fill:#ffffff;stroke-linecap:round;stroke-linejoin:round;stop-color:#000000;stroke:#000000;stroke-width:2.5;stroke-dasharray:none"
     id="rect738"
     width="70"
     height="33.200119"
     x="165"
     y="33.5" />
  <rect
     x="176"
     y="25.5"
     width="48"
     height="30"
     rx="1"
     stroke="currentColor"
     stroke-width="2.5"
     fill="#ffffff"
     stroke-linejoin="round"
     id="rect286" />
  <path
     id="line284"
     style="fill:#ffffff;stroke:#000000;stroke-width:2.5;stroke-linejoin:round"
     d="m 235,71.5 -25,-23 m -45,23 25,-23 m 10,7 -35,-22 v 38 c 0,1.5 1.5,3 3,3 h 64 c 1.5,0 3,-1.5 3,-3 v -38 z"
     sodipodi:nodetypes="ccccccsssscc" />
  <circle
     cx="200"
     cy="38.933716"
     r="10.426406"
     stroke="currentColor"
     stroke-width="2.5"
     fill="none"
     id="circle288" />
  <text
     xml:space="preserve"
     style="font-style:normal;font-variant:normal;font-weight:normal;font-stretch:normal;font-size:18.6667px;line-height:1;font-family:'Gotham Rounded';-inkscape-font-specification:'Gotham Rounded';text-align:center;text-decoration-color:#000000;letter-spacing:0px;word-spacing:0px;text-anchor:middle;fill:#000000;stroke:none;stroke-width:1;stroke-linecap:round;stroke-linejoin:round;stroke-dasharray:none;stop-color:#000000"
     x="199.103"
     y="45.46706"
     id="text1427"><tspan
       sodipodi:role="line"
       id="tspan1425"
       x="199.103"
       y="45.46706">€</tspan></text>
  <path
     d="m 118,50 h 14 m 0,0 -6,-6 m 6,6 -6,6"
     stroke="currentColor"
     stroke-width="2"
     stroke-linecap="round"
     stroke-linejoin="round"
     id="path153"
     style="stroke:#808080" />
</svg>
